<svg xmlns="http://www.w3.org/2000/svg" xmlns:xlink="http://www.w3.org/1999/xlink" width="500" zoomAndPan="magnify" viewBox="0 0 375 80.999996" height="108" preserveAspectRatio="xMidYMid meet" version="1.0"><defs><g/><clipPath id="818fbe390e"><path d="M 18.21875 4.5 L 91.28125 4.5 L 91.28125 77.558594 L 18.21875 77.558594 Z M 18.21875 4.5 " clip-rule="nonzero"/></clipPath><clipPath id="5fc0cd8910"><path d="M 64.699219 4.5 L 44.800781 4.5 C 42.730469 4.5 41.050781 6.179688 41.050781 8.25 L 41.050781 23.582031 C 41.050781 25.652344 39.371094 27.332031 37.300781 27.332031 L 21.96875 27.332031 C 19.898438 27.332031 18.21875 29.011719 18.21875 31.082031 L 18.21875 50.980469 C 18.21875 53.050781 19.898438 54.730469 21.96875 54.730469 L 37.300781 54.730469 C 39.371094 54.730469 41.050781 56.40625 41.050781 58.480469 L 41.050781 73.808594 C 41.050781 75.882812 42.730469 77.558594 44.800781 77.558594 L 64.699219 77.558594 C 66.769531 77.558594 68.449219 75.882812 68.449219 73.808594 L 68.449219 58.480469 C 68.449219 56.40625 70.128906 54.730469 72.199219 54.730469 L 87.53125 54.730469 C 89.601562 54.730469 91.28125 53.050781 91.28125 50.980469 L 91.28125 31.082031 C 91.28125 29.011719 89.601562 27.332031 87.53125 27.332031 L 72.199219 27.332031 C 70.128906 27.332031 68.449219 25.652344 68.449219 23.582031 L 68.449219 8.25 C 68.449219 6.179688 66.769531 4.5 64.699219 4.5 Z M 64.699219 4.5 " clip-rule="nonzero"/></clipPath><clipPath id="78d13cf174"><path d="M 73.214844 8.78125 L 86.148438 8.78125 L 86.148438 21.71875 L 73.214844 21.71875 Z M 73.214844 8.78125 " clip-rule="nonzero"/></clipPath><clipPath id="dffa9a889f"><path d="M 80.605469 8.78125 L 78.753906 8.78125 C 77.925781 8.78125 77.253906 9.453125 77.253906 10.28125 L 77.253906 11.324219 C 77.253906 12.152344 76.585938 12.824219 75.753906 12.824219 L 74.714844 12.824219 C 73.882812 12.824219 73.214844 13.496094 73.214844 14.324219 L 73.214844 16.175781 C 73.214844 17.003906 73.882812 17.675781 74.714844 17.675781 L 75.753906 17.675781 C 76.585938 17.675781 77.253906 18.347656 77.253906 19.175781 L 77.253906 20.21875 C 77.253906 21.046875 77.925781 21.71875 78.753906 21.71875 L 80.605469 21.71875 C 81.433594 21.71875 82.105469 21.046875 82.105469 20.21875 L 82.105469 19.175781 C 82.105469 18.347656 82.777344 17.675781 83.605469 17.675781 L 84.648438 17.675781 C 85.476562 17.675781 86.148438 17.003906 86.148438 16.175781 L 86.148438 14.324219 C 86.148438 13.496094 85.476562 12.824219 84.648438 12.824219 L 83.605469 12.824219 C 82.777344 12.824219 82.105469 12.152344 82.105469 11.324219 L 82.105469 10.28125 C 82.105469 9.453125 81.433594 8.78125 80.605469 8.78125 Z M 80.605469 8.78125 " clip-rule="nonzero"/></clipPath><clipPath id="a0671b98fa"><path d="M 28 25 L 58 25 L 58 67 L 28 67 Z M 28 25 " clip-rule="nonzero"/></clipPath><clipPath id="262bd429e1"><path d="M 41.285156 21.71875 L 60.304688 28.6875 L 45.316406 69.609375 L 26.292969 62.644531 Z M 41.285156 21.71875 " clip-rule="nonzero"/></clipPath><clipPath id="337afb407a"><path d="M 41.285156 21.71875 L 60.304688 28.6875 L 45.316406 69.609375 L 26.292969 62.644531 Z M 41.285156 21.71875 " clip-rule="nonzero"/></clipPath><clipPath id="0ed2914fb5"><path d="M 52 41 L 82 41 L 82 81 L 52 81 Z M 52 41 " clip-rule="nonzero"/></clipPath><clipPath id="c0814477b3"><path d="M 49.011719 45.050781 L 67.121094 37.445312 L 83.046875 75.363281 L 64.933594 82.96875 Z M 49.011719 45.050781 " clip-rule="nonzero"/></clipPath><clipPath id="d84ad8eddb"><path d="M 66.945312 37.519531 L 48.832031 45.125 L 64.757812 83.042969 L 82.871094 75.4375 Z M 66.945312 37.519531 " clip-rule="nonzero"/></clipPath></defs><rect x="-37.5" width="450" fill="#ffffff" y="-8.1" height="97.199995" fill-opacity="1"/><rect x="-37.5" width="450" fill="#ffffcc" y="-8.1" height="97.199995" fill-opacity="1"/><g fill="#000000" fill-opacity="1"><g transform="translate(114.844869, 63.617888)"><g><path d="M 15.96875 -9.703125 L 35.15625 -9.703125 L 35.15625 0 L 5.5 0 L 5.5 -48.171875 L 34.40625 -48.171875 L 34.40625 -38.53125 L 15.96875 -38.53125 L 15.96875 -29.03125 L 32.609375 -29.03125 L 32.609375 -19.609375 L 15.96875 -19.609375 Z M 15.96875 -9.703125 "/></g></g></g><g fill="#000000" fill-opacity="1"><g transform="translate(146.841832, 63.617888)"><g><path d="M 47.0625 -38.046875 C 49.632812 -38.046875 51.90625 -37.414062 53.875 -36.15625 C 55.851562 -34.894531 57.40625 -33.160156 58.53125 -30.953125 C 59.65625 -28.753906 60.21875 -26.210938 60.21875 -23.328125 L 60.21875 0 L 50.171875 0 L 50.171875 -21.671875 C 50.171875 -26.722656 48.285156 -29.25 44.515625 -29.25 C 42.316406 -29.25 40.585938 -28.441406 39.328125 -26.828125 C 38.066406 -25.222656 37.4375 -22.976562 37.4375 -20.09375 L 37.4375 0 L 27.59375 0 L 27.59375 -21.671875 C 27.59375 -26.722656 25.78125 -29.25 22.15625 -29.25 C 19.863281 -29.25 18.070312 -28.441406 16.78125 -26.828125 C 15.5 -25.222656 14.859375 -22.976562 14.859375 -20.09375 L 14.859375 0 L 4.8125 0 L 4.8125 -37.15625 L 11.828125 -37.15625 L 13.6875 -32.546875 C 15.019531 -34.203125 16.660156 -35.53125 18.609375 -36.53125 C 20.554688 -37.539062 22.632812 -38.046875 24.84375 -38.046875 C 27.175781 -38.046875 29.285156 -37.519531 31.171875 -36.46875 C 33.054688 -35.414062 34.523438 -33.945312 35.578125 -32.0625 C 36.859375 -33.894531 38.507812 -35.347656 40.53125 -36.421875 C 42.550781 -37.503906 44.726562 -38.046875 47.0625 -38.046875 Z M 47.0625 -38.046875 "/></g></g></g><g fill="#000000" fill-opacity="1"><g transform="translate(204.91871, 63.617888)"><g><path d="M 40.875 -18.71875 C 40.875 -17.75 40.804688 -16.765625 40.671875 -15.765625 L 12.59375 -15.765625 C 13.007812 -13.234375 14.019531 -11.289062 15.625 -9.9375 C 17.226562 -8.582031 19.242188 -7.90625 21.671875 -7.90625 C 23.421875 -7.90625 24.984375 -8.285156 26.359375 -9.046875 C 27.734375 -9.804688 28.785156 -10.851562 29.515625 -12.1875 L 40.125 -12.1875 C 38.738281 -8.144531 36.394531 -4.929688 33.09375 -2.546875 C 29.789062 -0.160156 25.984375 1.03125 21.671875 1.03125 C 18.003906 1.03125 14.710938 0.171875 11.796875 -1.546875 C 8.890625 -3.265625 6.597656 -5.601562 4.921875 -8.5625 C 3.242188 -11.519531 2.40625 -14.859375 2.40625 -18.578125 C 2.40625 -22.296875 3.242188 -25.632812 4.921875 -28.59375 C 6.597656 -31.550781 8.890625 -33.890625 11.796875 -35.609375 C 14.710938 -37.328125 18.003906 -38.1875 21.671875 -38.1875 C 25.484375 -38.1875 28.832031 -37.300781 31.71875 -35.53125 C 34.613281 -33.769531 36.863281 -31.421875 38.46875 -28.484375 C 40.070312 -25.546875 40.875 -22.289062 40.875 -18.71875 Z M 21.671875 -29.65625 C 19.421875 -29.65625 17.523438 -29.035156 15.984375 -27.796875 C 14.453125 -26.554688 13.414062 -24.835938 12.875 -22.640625 L 30.828125 -22.640625 C 29.359375 -27.316406 26.304688 -29.65625 21.671875 -29.65625 Z M 21.671875 -29.65625 "/></g></g></g><g fill="#f60000" fill-opacity="1"><g transform="translate(241.66517, 63.617888)"><g><path d="M 15.96875 -9.703125 L 34.40625 -9.703125 L 34.40625 0 L 5.5 0 L 5.5 -48.171875 L 15.96875 -48.171875 Z M 15.96875 -9.703125 "/></g></g></g><g fill="#f60000" fill-opacity="1"><g transform="translate(271.116074, 63.617888)"><g><path d="M 22.5 1.03125 C 18.644531 1.03125 15.203125 0.171875 12.171875 -1.546875 C 9.148438 -3.265625 6.765625 -5.601562 5.015625 -8.5625 C 3.273438 -11.519531 2.40625 -14.859375 2.40625 -18.578125 C 2.40625 -22.335938 3.273438 -25.695312 5.015625 -28.65625 C 6.765625 -31.613281 9.148438 -33.941406 12.171875 -35.640625 C 15.203125 -37.335938 18.644531 -38.1875 22.5 -38.1875 C 26.3125 -38.1875 29.726562 -37.335938 32.75 -35.640625 C 35.78125 -33.941406 38.164062 -31.613281 39.90625 -28.65625 C 41.65625 -25.695312 42.53125 -22.335938 42.53125 -18.578125 C 42.53125 -14.859375 41.65625 -11.519531 39.90625 -8.5625 C 38.164062 -5.601562 35.78125 -3.265625 32.75 -1.546875 C 29.726562 0.171875 26.3125 1.03125 22.5 1.03125 Z M 22.5 -8.390625 C 25.394531 -8.390625 27.757812 -9.328125 29.59375 -11.203125 C 31.425781 -13.085938 32.34375 -15.546875 32.34375 -18.578125 C 32.34375 -21.609375 31.425781 -24.0625 29.59375 -25.9375 C 27.757812 -27.820312 25.394531 -28.765625 22.5 -28.765625 C 19.5625 -28.765625 17.175781 -27.820312 15.34375 -25.9375 C 13.507812 -24.0625 12.59375 -21.609375 12.59375 -18.578125 C 12.59375 -15.546875 13.507812 -13.085938 15.34375 -11.203125 C 17.175781 -9.328125 19.5625 -8.390625 22.5 -8.390625 Z M 22.5 -8.390625 "/></g></g></g><g fill="#f60000" fill-opacity="1"><g transform="translate(309.581409, 63.617888)"><g><path d="M 22.09375 1.03125 C 18.375 1.03125 15.019531 0.160156 12.03125 -1.578125 C 9.050781 -3.328125 6.703125 -5.691406 4.984375 -8.671875 C 3.265625 -11.648438 2.40625 -15 2.40625 -18.71875 C 2.40625 -22.4375 3.265625 -25.757812 4.984375 -28.6875 C 6.703125 -31.625 9.050781 -33.941406 12.03125 -35.640625 C 15.019531 -37.335938 18.394531 -38.1875 22.15625 -38.1875 C 25.363281 -38.1875 28.285156 -37.554688 30.921875 -36.296875 C 33.566406 -35.035156 35.769531 -33.257812 37.53125 -30.96875 C 39.300781 -28.675781 40.484375 -26.015625 41.078125 -22.984375 L 31.109375 -22.984375 C 30.273438 -24.816406 29.066406 -26.238281 27.484375 -27.25 C 25.898438 -28.257812 24.101562 -28.765625 22.09375 -28.765625 C 20.300781 -28.765625 18.679688 -28.316406 17.234375 -27.421875 C 15.785156 -26.523438 14.648438 -25.316406 13.828125 -23.796875 C 13.003906 -22.285156 12.59375 -20.566406 12.59375 -18.640625 C 12.59375 -16.722656 13.003906 -14.992188 13.828125 -13.453125 C 14.648438 -11.910156 15.785156 -10.679688 17.234375 -9.765625 C 18.679688 -8.847656 20.300781 -8.390625 22.09375 -8.390625 C 24.15625 -8.390625 25.953125 -8.925781 27.484375 -10 C 29.023438 -11.082031 30.234375 -12.632812 31.109375 -14.65625 L 41.21875 -14.65625 C 40.625 -11.539062 39.429688 -8.800781 37.640625 -6.4375 C 35.847656 -4.070312 33.617188 -2.234375 30.953125 -0.921875 C 28.296875 0.378906 25.34375 1.03125 22.09375 1.03125 Z M 22.09375 1.03125 "/></g></g></g><g clip-path="url(#818fbe390e)"><g clip-path="url(#5fc0cd8910)"><path fill="#ff3131" d="M 18.21875 4.5 L 91.28125 4.5 L 91.28125 77.558594 L 18.21875 77.558594 Z M 18.21875 4.5 " fill-opacity="1" fill-rule="nonzero"/></g></g><g clip-path="url(#78d13cf174)"><g clip-path="url(#dffa9a889f)"><path fill="#ff3131" d="M 73.214844 8.78125 L 86.148438 8.78125 L 86.148438 21.71875 L 73.214844 21.71875 Z M 73.214844 8.78125 " fill-opacity="1" fill-rule="nonzero"/></g></g><g clip-path="url(#a0671b98fa)"><g clip-path="url(#262bd429e1)"><g clip-path="url(#337afb407a)"><path fill="#ffffff" d="M 28.269531 62.898438 C 30.296875 60.242188 31.679688 57.179688 33.535156 54.410156 C 35.128906 51.707031 36.8125 48.996094 37.792969 46 C 38.386719 43.355469 37.785156 40.570312 38.699219 37.980469 C 38.90625 36.464844 39.597656 34.902344 39.195312 33.382812 C 38.234375 32.515625 38.066406 30.566406 39.839844 31.171875 C 41.421875 31.316406 41.617188 34.183594 42.21875 34.285156 C 43.199219 32.195312 44.132812 30.007812 45.863281 28.410156 C 46.867188 27.5 47.660156 25.542969 49.25 25.816406 C 50.949219 26.738281 49.007812 28.550781 48.402344 29.605469 C 47.835938 30.675781 46.03125 32.210938 46.457031 33.128906 C 48.144531 31.070312 50.21875 29.316406 52.34375 27.703125 C 53.925781 26.355469 55.339844 28.902344 53.597656 29.804688 C 51.910156 31.539062 50.011719 33.105469 48.714844 35.175781 C 47.914062 35.925781 48.445312 36.445312 49.097656 35.484375 C 50.570312 33.832031 52.316406 32.460938 53.863281 30.882812 C 54.96875 29.097656 57.023438 31.429688 55.355469 32.527344 C 54.074219 34.007812 52.601562 35.3125 51.320312 36.785156 C 50.886719 37.402344 49.007812 39.8125 50.867188 38.828125 C 52.613281 37.84375 54.128906 36.53125 55.625 35.210938 C 57.503906 34.101562 57.453125 36.859375 56.097656 37.515625 C 54.605469 39.207031 52.914062 40.714844 51.226562 42.203125 C 49.429688 44.6875 48.214844 47.648438 45.808594 49.652344 C 44.398438 50.484375 43.851562 52.011719 43.347656 53.484375 C 41.722656 57.90625 40.191406 62.359375 38.617188 66.800781 C 35.171875 65.496094 31.652344 64.351562 28.269531 62.898438 Z M 28.269531 62.898438 " fill-opacity="1" fill-rule="nonzero"/></g></g></g><g clip-path="url(#0ed2914fb5)"><g clip-path="url(#c0814477b3)"><g clip-path="url(#d84ad8eddb)"><path fill="#ffffff" d="M 81.15625 76.144531 C 79.105469 73.707031 77.65625 70.851562 75.765625 68.300781 C 74.128906 65.796875 72.40625 63.289062 71.339844 60.480469 C 70.660156 57.992188 71.105469 55.308594 70.121094 52.882812 C 69.859375 51.453125 69.128906 49.996094 69.441406 48.53125 C 70.320312 47.660156 70.394531 45.796875 68.734375 46.453125 C 67.234375 46.660156 67.175781 49.402344 66.605469 49.527344 C 65.582031 47.578125 64.59375 45.539062 62.875 44.09375 C 61.882812 43.269531 61.039062 41.441406 59.539062 41.773438 C 57.960938 42.726562 59.886719 44.363281 60.511719 45.34375 C 61.097656 46.335938 62.886719 47.71875 62.519531 48.609375 C 60.820312 46.726562 58.769531 45.148438 56.675781 43.707031 C 55.109375 42.492188 53.875 44.980469 55.574219 45.761719 C 57.261719 47.339844 59.136719 48.746094 60.460938 50.660156 C 61.257812 51.335938 60.773438 51.855469 60.109375 50.96875 C 58.636719 49.460938 56.914062 48.234375 55.367188 46.800781 C 54.238281 45.148438 52.386719 47.460938 54.023438 48.433594 C 55.304688 49.785156 56.765625 50.960938 58.054688 52.304688 C 58.492188 52.875 60.390625 55.089844 58.574219 54.234375 C 56.867188 53.371094 55.367188 52.1875 53.882812 51 C 52.046875 50.027344 52.21875 52.648438 53.535156 53.214844 C 55.035156 54.757812 56.707031 56.121094 58.382812 57.460938 C 60.203125 59.746094 61.492188 62.511719 63.871094 64.3125 C 65.25 65.042969 65.835938 66.472656 66.382812 67.851562 C 68.125 71.988281 69.78125 76.164062 71.476562 80.320312 C 74.699219 78.925781 78 77.679688 81.15625 76.144531 Z M 81.15625 76.144531 " fill-opacity="1" fill-rule="nonzero"/></g></g></g></svg>