<svg xmlns="http://www.w3.org/2000/svg" xmlns:xlink="http://www.w3.org/1999/xlink" width="500" zoomAndPan="magnify" viewBox="0 0 375 374.999991" height="500" preserveAspectRatio="xMidYMid meet" version="1.0"><defs><g/><clipPath id="b7d2c5080a"><path d="M 115.167969 87.339844 L 249.539062 87.339844 L 249.539062 221.710938 L 115.167969 221.710938 Z M 115.167969 87.339844 " clip-rule="nonzero"/></clipPath><clipPath id="a1fef69ff8"><path d="M 203.796875 87.339844 L 160.90625 87.339844 C 158.835938 87.339844 157.15625 89.019531 157.15625 91.089844 L 157.15625 125.582031 C 157.15625 127.652344 155.480469 129.332031 153.40625 129.332031 L 118.917969 129.332031 C 116.847656 129.332031 115.167969 131.007812 115.167969 133.078125 L 115.167969 175.96875 C 115.167969 178.039062 116.847656 179.71875 118.917969 179.71875 L 153.40625 179.71875 C 155.480469 179.71875 157.15625 181.398438 157.15625 183.46875 L 157.15625 217.960938 C 157.15625 220.03125 158.835938 221.710938 160.90625 221.710938 L 203.796875 221.710938 C 205.867188 221.710938 207.546875 220.03125 207.546875 217.960938 L 207.546875 183.46875 C 207.546875 181.398438 209.226562 179.71875 211.296875 179.71875 L 245.789062 179.71875 C 247.859375 179.71875 249.539062 178.039062 249.539062 175.96875 L 249.539062 133.078125 C 249.539062 131.007812 247.859375 129.332031 245.789062 129.332031 L 211.296875 129.332031 C 209.226562 129.332031 207.546875 127.652344 207.546875 125.582031 L 207.546875 91.089844 C 207.546875 89.019531 205.867188 87.339844 203.796875 87.339844 Z M 203.796875 87.339844 " clip-rule="nonzero"/></clipPath><clipPath id="6aa5982848"><path d="M 216.308594 95.214844 L 240.101562 95.214844 L 240.101562 119.007812 L 216.308594 119.007812 Z M 216.308594 95.214844 " clip-rule="nonzero"/></clipPath><clipPath id="c7503f990c"><path d="M 231.167969 95.214844 L 225.246094 95.214844 C 224.847656 95.214844 224.464844 95.371094 224.183594 95.652344 C 223.902344 95.933594 223.746094 96.316406 223.746094 96.714844 L 223.746094 101.148438 C 223.746094 101.546875 223.585938 101.929688 223.304688 102.210938 C 223.023438 102.492188 222.640625 102.648438 222.246094 102.648438 L 217.808594 102.648438 C 217.410156 102.648438 217.03125 102.808594 216.75 103.089844 C 216.46875 103.371094 216.308594 103.75 216.308594 104.148438 L 216.308594 110.070312 C 216.308594 110.46875 216.46875 110.851562 216.75 111.132812 C 217.03125 111.414062 217.410156 111.570312 217.808594 111.570312 L 222.246094 111.570312 C 222.640625 111.570312 223.023438 111.730469 223.304688 112.011719 C 223.585938 112.292969 223.746094 112.671875 223.746094 113.070312 L 223.746094 117.507812 C 223.746094 117.90625 223.902344 118.285156 224.183594 118.566406 C 224.464844 118.847656 224.847656 119.007812 225.246094 119.007812 L 231.167969 119.007812 C 231.566406 119.007812 231.945312 118.847656 232.226562 118.566406 C 232.507812 118.285156 232.667969 117.90625 232.667969 117.507812 L 232.667969 113.070312 C 232.667969 112.671875 232.824219 112.292969 233.105469 112.011719 C 233.386719 111.730469 233.769531 111.570312 234.167969 111.570312 L 238.601562 111.570312 C 239 111.570312 239.382812 111.414062 239.664062 111.132812 C 239.945312 110.851562 240.101562 110.46875 240.101562 110.070312 L 240.101562 104.148438 C 240.101562 103.75 239.945312 103.371094 239.664062 103.089844 C 239.382812 102.808594 239 102.648438 238.601562 102.648438 L 234.167969 102.648438 C 233.769531 102.648438 233.386719 102.492188 233.105469 102.210938 C 232.824219 101.929688 232.667969 101.546875 232.667969 101.148438 L 232.667969 96.714844 C 232.667969 96.316406 232.507812 95.933594 232.226562 95.652344 C 231.945312 95.371094 231.566406 95.214844 231.167969 95.214844 Z M 231.167969 95.214844 " clip-rule="nonzero"/></clipPath><clipPath id="51850bfa74"><path d="M 133 126 L 187 126 L 187 202 L 133 202 Z M 133 126 " clip-rule="nonzero"/></clipPath><clipPath id="d66250c28c"><path d="M 157.585938 119.007812 L 192.566406 131.820312 L 165 207.089844 L 130.019531 194.277344 Z M 157.585938 119.007812 " clip-rule="nonzero"/></clipPath><clipPath id="768283694a"><path d="M 157.585938 119.007812 L 192.566406 131.820312 L 165 207.089844 L 130.019531 194.277344 Z M 157.585938 119.007812 " clip-rule="nonzero"/></clipPath><clipPath id="6b4489fb96"><path d="M 178 155 L 231 155 L 231 227 L 178 227 Z M 178 155 " clip-rule="nonzero"/></clipPath><clipPath id="5661a50ce6"><path d="M 171.792969 161.917969 L 205.105469 147.929688 L 234.394531 217.667969 L 201.085938 231.65625 Z M 171.792969 161.917969 " clip-rule="nonzero"/></clipPath><clipPath id="2f39775fb5"><path d="M 204.777344 148.066406 L 171.46875 162.054688 L 200.761719 231.792969 L 234.070312 217.804688 Z M 204.777344 148.066406 " clip-rule="nonzero"/></clipPath></defs><rect x="-37.5" width="450" fill="#ffffff" y="-37.499999" height="449.999989" fill-opacity="1"/><rect x="-37.5" width="450" fill="#000000" y="-37.499999" height="449.999989" fill-opacity="1"/><g fill="#ffffff" fill-opacity="1"><g transform="translate(113.638958, 275.054248)"><g><path d="M 8.734375 -5.3125 L 19.21875 -5.3125 L 19.21875 0 L 3.015625 0 L 3.015625 -26.34375 L 18.8125 -26.34375 L 18.8125 -21.0625 L 8.734375 -21.0625 L 8.734375 -15.875 L 17.828125 -15.875 L 17.828125 -10.71875 L 8.734375 -10.71875 Z M 8.734375 -5.3125 "/></g></g></g><g fill="#ffffff" fill-opacity="1"><g transform="translate(134.672235, 275.054248)"><g><path d="M 25.734375 -20.8125 C 27.140625 -20.8125 28.378906 -20.460938 29.453125 -19.765625 C 30.535156 -19.078125 31.382812 -18.128906 32 -16.921875 C 32.613281 -15.722656 32.921875 -14.332031 32.921875 -12.75 L 32.921875 0 L 27.421875 0 L 27.421875 -11.859375 C 27.421875 -14.609375 26.394531 -15.984375 24.34375 -15.984375 C 23.132812 -15.984375 22.1875 -15.546875 21.5 -14.671875 C 20.8125 -13.796875 20.46875 -12.566406 20.46875 -10.984375 L 20.46875 0 L 15.09375 0 L 15.09375 -11.859375 C 15.09375 -14.609375 14.097656 -15.984375 12.109375 -15.984375 C 10.859375 -15.984375 9.878906 -15.546875 9.171875 -14.671875 C 8.472656 -13.796875 8.125 -12.566406 8.125 -10.984375 L 8.125 0 L 2.640625 0 L 2.640625 -20.3125 L 6.46875 -20.3125 L 7.484375 -17.796875 C 8.210938 -18.703125 9.109375 -19.429688 10.171875 -19.984375 C 11.242188 -20.535156 12.378906 -20.8125 13.578125 -20.8125 C 14.859375 -20.8125 16.015625 -20.519531 17.046875 -19.9375 C 18.078125 -19.363281 18.878906 -18.5625 19.453125 -17.53125 C 20.148438 -18.53125 21.050781 -19.328125 22.15625 -19.921875 C 23.257812 -20.515625 24.453125 -20.8125 25.734375 -20.8125 Z M 25.734375 -20.8125 "/></g></g></g><g fill="#ffffff" fill-opacity="1"><g transform="translate(169.965995, 275.054248)"><g><path d="M 22.34375 -10.234375 C 22.34375 -9.703125 22.304688 -9.160156 22.234375 -8.609375 L 6.890625 -8.609375 C 7.109375 -7.234375 7.65625 -6.175781 8.53125 -5.4375 C 9.414062 -4.695312 10.523438 -4.328125 11.859375 -4.328125 C 12.804688 -4.328125 13.65625 -4.53125 14.40625 -4.9375 C 15.164062 -5.351562 15.742188 -5.925781 16.140625 -6.65625 L 21.9375 -6.65625 C 21.1875 -4.445312 19.90625 -2.691406 18.09375 -1.390625 C 16.289062 -0.0859375 14.210938 0.5625 11.859375 0.5625 C 9.847656 0.5625 8.046875 0.09375 6.453125 -0.84375 C 4.859375 -1.78125 3.601562 -3.054688 2.6875 -4.671875 C 1.769531 -6.296875 1.3125 -8.125 1.3125 -10.15625 C 1.3125 -12.1875 1.769531 -14.007812 2.6875 -15.625 C 3.601562 -17.25 4.859375 -18.53125 6.453125 -19.46875 C 8.046875 -20.40625 9.847656 -20.875 11.859375 -20.875 C 13.929688 -20.875 15.757812 -20.390625 17.34375 -19.421875 C 18.925781 -18.460938 20.15625 -17.179688 21.03125 -15.578125 C 21.90625 -13.972656 22.34375 -12.191406 22.34375 -10.234375 Z M 11.859375 -16.21875 C 10.628906 -16.21875 9.59375 -15.878906 8.75 -15.203125 C 7.90625 -14.523438 7.332031 -13.582031 7.03125 -12.375 L 16.859375 -12.375 C 16.054688 -14.9375 14.390625 -16.21875 11.859375 -16.21875 Z M 11.859375 -16.21875 "/></g></g></g><g fill="#f60000" fill-opacity="1"><g transform="translate(193.60228, 275.054248)"><g><path d="M 8.734375 -5.3125 L 18.8125 -5.3125 L 18.8125 0 L 3.015625 0 L 3.015625 -26.34375 L 8.734375 -26.34375 Z M 8.734375 -5.3125 "/></g></g></g><g fill="#f60000" fill-opacity="1"><g transform="translate(213.243371, 275.054248)"><g><path d="M 12.296875 0.5625 C 10.191406 0.5625 8.3125 0.09375 6.65625 -0.84375 C 5 -1.78125 3.691406 -3.054688 2.734375 -4.671875 C 1.785156 -6.296875 1.3125 -8.125 1.3125 -10.15625 C 1.3125 -12.21875 1.785156 -14.054688 2.734375 -15.671875 C 3.691406 -17.285156 5 -18.554688 6.65625 -19.484375 C 8.3125 -20.410156 10.191406 -20.875 12.296875 -20.875 C 14.378906 -20.875 16.25 -20.410156 17.90625 -19.484375 C 19.5625 -18.554688 20.863281 -17.285156 21.8125 -15.671875 C 22.769531 -14.054688 23.25 -12.21875 23.25 -10.15625 C 23.25 -8.125 22.769531 -6.296875 21.8125 -4.671875 C 20.863281 -3.054688 19.5625 -1.78125 17.90625 -0.84375 C 16.25 0.09375 14.378906 0.5625 12.296875 0.5625 Z M 12.296875 -4.59375 C 13.878906 -4.59375 15.171875 -5.101562 16.171875 -6.125 C 17.179688 -7.15625 17.6875 -8.5 17.6875 -10.15625 C 17.6875 -11.8125 17.179688 -13.15625 16.171875 -14.1875 C 15.171875 -15.21875 13.878906 -15.734375 12.296875 -15.734375 C 10.691406 -15.734375 9.390625 -15.21875 8.390625 -14.1875 C 7.390625 -13.15625 6.890625 -11.8125 6.890625 -10.15625 C 6.890625 -8.5 7.390625 -7.15625 8.390625 -6.125 C 9.390625 -5.101562 10.691406 -4.59375 12.296875 -4.59375 Z M 12.296875 -4.59375 "/></g></g></g><g fill="#f60000" fill-opacity="1"><g transform="translate(237.813538, 275.054248)"><g><path d="M 12.078125 0.5625 C 10.046875 0.5625 8.210938 0.0859375 6.578125 -0.859375 C 4.953125 -1.816406 3.664062 -3.109375 2.71875 -4.734375 C 1.78125 -6.367188 1.3125 -8.203125 1.3125 -10.234375 C 1.3125 -12.265625 1.78125 -14.082031 2.71875 -15.6875 C 3.664062 -17.289062 4.953125 -18.554688 6.578125 -19.484375 C 8.210938 -20.410156 10.054688 -20.875 12.109375 -20.875 C 13.867188 -20.875 15.46875 -20.53125 16.90625 -19.84375 C 18.351562 -19.15625 19.554688 -18.179688 20.515625 -16.921875 C 21.484375 -15.671875 22.132812 -14.21875 22.46875 -12.5625 L 17 -12.5625 C 16.550781 -13.570312 15.894531 -14.351562 15.03125 -14.90625 C 14.164062 -15.457031 13.179688 -15.734375 12.078125 -15.734375 C 11.097656 -15.734375 10.210938 -15.488281 9.421875 -15 C 8.628906 -14.507812 8.007812 -13.847656 7.5625 -13.015625 C 7.113281 -12.191406 6.890625 -11.253906 6.890625 -10.203125 C 6.890625 -9.140625 7.113281 -8.1875 7.5625 -7.34375 C 8.007812 -6.507812 8.628906 -5.84375 9.421875 -5.34375 C 10.210938 -4.84375 11.097656 -4.59375 12.078125 -4.59375 C 13.203125 -4.59375 14.1875 -4.882812 15.03125 -5.46875 C 15.875 -6.0625 16.53125 -6.910156 17 -8.015625 L 22.53125 -8.015625 C 22.207031 -6.304688 21.554688 -4.804688 20.578125 -3.515625 C 19.597656 -2.222656 18.378906 -1.21875 16.921875 -0.5 C 15.472656 0.207031 13.859375 0.5625 12.078125 0.5625 Z M 12.078125 0.5625 "/></g></g></g><g clip-path="url(#b7d2c5080a)"><g clip-path="url(#a1fef69ff8)"><path fill="#ff3131" d="M 115.167969 87.339844 L 249.539062 87.339844 L 249.539062 221.710938 L 115.167969 221.710938 Z M 115.167969 87.339844 " fill-opacity="1" fill-rule="nonzero"/></g></g><g clip-path="url(#6aa5982848)"><g clip-path="url(#c7503f990c)"><path fill="#ff3131" d="M 216.308594 95.214844 L 240.101562 95.214844 L 240.101562 119.007812 L 216.308594 119.007812 Z M 216.308594 95.214844 " fill-opacity="1" fill-rule="nonzero"/></g></g><g clip-path="url(#51850bfa74)"><g clip-path="url(#d66250c28c)"><g clip-path="url(#768283694a)"><path fill="#ffffff" d="M 133.648438 194.742188 C 137.378906 189.859375 139.921875 184.222656 143.335938 179.132812 C 146.269531 174.164062 149.363281 169.175781 151.167969 163.667969 C 152.253906 158.804688 151.152344 153.679688 152.828125 148.914062 C 153.210938 146.132812 154.484375 143.253906 153.746094 140.460938 C 151.976562 138.863281 151.671875 135.277344 154.929688 136.394531 C 157.835938 136.65625 158.195312 141.933594 159.308594 142.121094 C 161.105469 138.277344 162.824219 134.253906 166.007812 131.316406 C 167.851562 129.640625 169.3125 126.039062 172.234375 126.542969 C 175.359375 128.238281 171.792969 131.570312 170.675781 133.511719 C 169.640625 135.476562 166.316406 138.304688 167.101562 139.988281 C 170.207031 136.207031 174.019531 132.980469 177.925781 130.015625 C 180.832031 127.53125 183.4375 132.222656 180.230469 133.875 C 177.125 137.070312 173.636719 139.945312 171.253906 143.757812 C 169.78125 145.136719 170.757812 146.089844 171.957031 144.324219 C 174.664062 141.285156 177.875 138.761719 180.722656 135.863281 C 182.75 132.578125 186.53125 136.863281 183.464844 138.886719 C 181.113281 141.613281 178.402344 144.007812 176.042969 146.714844 C 175.246094 147.847656 171.789062 152.289062 175.207031 150.476562 C 178.421875 148.660156 181.210938 146.246094 183.964844 143.820312 C 187.414062 141.78125 187.324219 146.851562 184.835938 148.058594 C 182.082031 151.171875 178.976562 153.949219 175.871094 156.683594 C 172.566406 161.25 170.332031 166.695312 165.902344 170.378906 C 163.3125 171.910156 162.308594 174.71875 161.378906 177.429688 C 158.394531 185.5625 155.574219 193.753906 152.683594 201.921875 C 146.34375 199.523438 139.871094 197.414062 133.648438 194.742188 Z M 133.648438 194.742188 " fill-opacity="1" fill-rule="nonzero"/></g></g></g><g clip-path="url(#6b4489fb96)"><g clip-path="url(#5661a50ce6)"><g clip-path="url(#2f39775fb5)"><path fill="#ffffff" d="M 230.917969 219.109375 C 227.148438 214.625 224.480469 209.371094 221.003906 204.679688 C 217.992188 200.074219 214.824219 195.464844 212.863281 190.300781 C 211.609375 185.71875 212.433594 180.789062 210.625 176.328125 C 210.136719 173.695312 208.800781 171.011719 209.375 168.320312 C 210.992188 166.722656 211.125 163.292969 208.070312 164.5 C 205.3125 164.878906 205.207031 169.921875 204.15625 170.148438 C 202.273438 166.566406 200.460938 162.816406 197.296875 160.160156 C 195.46875 158.644531 193.917969 155.28125 191.15625 155.890625 C 188.257812 157.644531 191.804688 160.65625 192.949219 162.457031 C 194.027344 164.28125 197.316406 166.824219 196.640625 168.464844 C 193.519531 165.003906 189.746094 162.097656 185.894531 159.449219 C 183.015625 157.214844 180.742188 161.792969 183.871094 163.226562 C 186.96875 166.132812 190.417969 168.714844 192.855469 172.234375 C 194.320312 173.480469 193.429688 174.433594 192.210938 172.804688 C 189.496094 170.03125 186.332031 167.773438 183.492188 165.136719 C 181.414062 162.101562 178.003906 166.351562 181.011719 168.136719 C 183.375 170.628906 186.058594 172.789062 188.425781 175.261719 C 189.238281 176.308594 192.722656 180.382812 189.390625 178.808594 C 186.25 177.222656 183.484375 175.046875 180.757812 172.859375 C 177.382812 171.070312 177.695312 175.894531 180.117188 176.933594 C 182.875 179.773438 185.953125 182.277344 189.035156 184.746094 C 192.382812 188.949219 194.75 194.03125 199.128906 197.34375 C 201.664062 198.6875 202.746094 201.316406 203.75 203.855469 C 206.953125 211.464844 210 219.140625 213.113281 226.785156 C 219.046875 224.222656 225.109375 221.929688 230.917969 219.109375 Z M 230.917969 219.109375 " fill-opacity="1" fill-rule="nonzero"/></g></g></g></svg>